<!-- icon666.com - MILLIONS vector ICONS FREE --><svg version="1.1" id="Layer_1" xmlns="http://www.w3.org/2000/svg" xmlns:xlink="http://www.w3.org/1999/xlink" x="0px" y="0px" viewBox="0 0 512 512" style="enable-background:new 0 0 512 512;" xml:space="preserve"><path style="fill:#8E2F00;" d="M148.401,426.017c0.996,2.794-0.615,5.079-3.579,5.079H63.057c-2.964,0-5.017-2.398-4.558-5.329 l9.116-58.454c0.458-2.931,3.257-5.329,6.221-5.329h46.35c2.963,0,6.205,2.286,7.2,5.079L148.401,426.017z"></path><path style="fill:#CF6728;" d="M202.819,425.86c0.709,2.881-1.138,5.237-4.102,5.237H99.705c-2.964,0-5.212-2.42-4.998-5.378 l12.004-164.637c0.215-2.958,2.817-5.379,5.781-5.379h43.111c2.964,0,5.968,2.357,6.677,5.237L202.819,425.86z"></path><path style="opacity:0.1;fill:#231F20;enable-background:new ;" d="M116.966,425.719l12.004-164.637 c0.215-2.958,2.817-5.379,5.78-5.379h-22.258c-2.964,0-5.566,2.42-5.781,5.379L94.707,425.719c-0.214,2.958,2.033,5.378,4.998,5.378 h22.259C119,431.097,116.751,428.677,116.966,425.719z"></path><path style="fill:#E02424;" d="M40.231,425.778c-0.489,2.926,1.538,5.319,4.502,5.319h25.87c2.964,0,5.39-2.426,5.39-5.393V317.882 c0-2.966-2.425-5.393-5.39-5.393h-6.08c-2.964,0-5.789,2.394-6.278,5.32L40.231,425.778z"></path><path style="fill:#AF3E00;" d="M40.231,425.778c-0.489,2.926,1.538,5.319,4.502,5.319h25.87c2.964,0,5.39-2.426,5.39-5.393V317.882 c0-2.966-2.425-5.393-5.39-5.393h-6.08c-2.964,0-5.789,2.394-6.278,5.32L40.231,425.778z"></path><path style="fill:#8E2F00;" d="M235.71,426.017c0.996,2.794-0.614,5.079-3.579,5.079h-81.765c-2.964,0-5.016-2.398-4.558-5.329 l9.117-58.454c0.458-2.931,3.256-5.329,6.22-5.329h46.35c2.964,0,6.205,2.286,7.2,5.079L235.71,426.017z"></path><path style="opacity:0.1;fill:#231F20;enable-background:new ;" d="M167.959,425.769l9.116-58.454 c0.458-2.931,3.257-5.329,6.221-5.329h-22.151c-2.964,0-5.764,2.398-6.22,5.329l-9.117,58.454c-0.458,2.931,1.593,5.329,4.558,5.329 h22.15C169.553,431.097,167.501,428.699,167.959,425.769z"></path><path style="fill:#AAB0B5;" d="M143.236,187.11h-7.429c0.535-1.895,0.84-3.888,0.84-5.956c0-12.064-9.738-21.84-21.748-21.84 c-6.593,0-12.49,2.958-16.479,7.61c-3.988-4.652-9.883-7.61-16.477-7.61c-12.012,0-21.75,9.776-21.75,21.84 c0,2.069,0.306,4.06,0.841,5.956h-4.795c-8.734,0-15.818,7.114-15.818,15.885s7.082,15.883,15.818,15.883h86.998 c8.736,0,15.82-7.113,15.82-15.883S151.972,187.11,143.236,187.11z"></path><path style="fill:#D2D8DB;" d="M157.396,76.718h-6.125c0.441-1.561,0.692-3.204,0.692-4.91c0-9.945-8.028-18.006-17.929-18.006 c-5.435,0-10.295,2.439-13.584,6.274c-3.287-3.835-8.147-6.274-13.583-6.274c-9.902,0-17.93,8.06-17.93,18.006 c0,1.706,0.252,3.349,0.694,4.91h-3.953c-7.201,0-13.039,5.863-13.039,13.095s5.839,13.096,13.039,13.096h71.72 c7.204,0,13.04-5.864,13.04-13.096S164.599,76.718,157.396,76.718z"></path><ellipse style="fill:#FEBE2D;" cx="266.198" cy="91.127" rx="51.618" ry="51.832"></ellipse><path style="opacity:0.1;fill:#231F20;enable-background:new ;" d="M236.843,91.129c0-24.788,17.332-45.499,40.486-50.612 c-3.586-0.792-7.308-1.221-11.13-1.221c-28.506,0-51.616,23.206-51.616,51.832s23.11,51.832,51.616,51.832 c3.822,0,7.545-0.429,11.13-1.221C254.175,136.628,236.843,115.917,236.843,91.129z"></path><path style="fill:#D69363;" d="M350.653,425.704c0,2.966,2.425,5.393,5.39,5.393h49.789c2.964,0,5.39-2.426,5.39-5.393V196.205 c0-2.965-2.352-5.987-5.226-6.715l-50.119-12.679c-2.873-0.726-5.226,1.105-5.226,4.071v244.822H350.653z"></path><path style="opacity:0.1;fill:#231F20;enable-background:new ;" d="M369.178,425.704V180.883c0-0.241,0.04-0.463,0.069-0.689 l-13.369-3.382c-2.873-0.726-5.226,1.105-5.226,4.071v244.821c0,2.966,2.425,5.393,5.39,5.393h18.525 C371.604,431.097,369.178,428.67,369.178,425.704z"></path><path style="fill:#8E2F00;" d="M467.159,425.805c0.57,2.91-1.388,5.291-4.352,5.291h-70.986c-2.965,0-5.39-2.426-5.39-5.393V251.209 c0-2.965,2.424-5.392,5.39-5.392h34.646c2.964,0,5.856,2.38,6.427,5.29L467.159,425.805z"></path><path style="opacity:0.1;fill:#231F20;enable-background:new ;" d="M409.061,425.704V251.209c0-2.965,2.424-5.392,5.39-5.392 h-22.63c-2.965,0-5.39,2.426-5.39,5.392v174.495c0,2.966,2.424,5.393,5.39,5.393h22.63 C411.486,431.097,409.061,428.67,409.061,425.704z"></path><path style="fill:#CF6728;" d="M287.038,426.064c-1.065,2.767,0.491,5.032,3.455,5.032h98.302c2.964,0,5.389-2.426,5.389-5.393 V310.411c0-2.965-2.424-5.392-5.389-5.392h-49.824c-2.964,0-6.26,2.264-7.326,5.032L287.038,426.064z"></path><path style="opacity:0.1;fill:#231F20;enable-background:new ;" d="M302.993,426.064l44.608-116.012 c1.066-2.768,4.361-5.032,7.326-5.032h-15.956c-2.964,0-6.26,2.264-7.326,5.032l-44.608,116.012 c-1.065,2.767,0.491,5.032,3.455,5.032h15.955C303.483,431.097,301.928,428.831,302.993,426.064z"></path><path style="fill:#AF3E00;" d="M321.474,425.962c-0.904,2.823,0.781,5.135,3.744,5.135h105.406c2.963,0,4.914-2.379,4.335-5.289 l-13.061-65.511c-0.581-2.908-3.481-5.289-6.444-5.289h-65.853c-2.964,0-6.13,2.311-7.034,5.136L321.474,425.962z"></path><path style="opacity:0.1;fill:#231F20;enable-background:new ;" d="M343.978,425.962l21.093-65.818 c0.904-2.824,4.071-5.136,7.034-5.136h-22.504c-2.964,0-6.13,2.311-7.034,5.136l-21.093,65.818 c-0.904,2.823,0.781,5.135,3.744,5.135h22.504C344.759,431.097,343.074,428.785,343.978,425.962z"></path><path style="fill:#AAB0B5;" d="M438.412,119.984h-6.17c0.444-1.576,0.697-3.23,0.697-4.947c0-10.02-8.087-18.142-18.065-18.142 c-5.476,0-10.375,2.458-13.686,6.322c-3.314-3.864-8.211-6.322-13.687-6.322c-9.977,0-18.066,8.122-18.066,18.142 c0,1.718,0.253,3.372,0.698,4.947h-3.984c-7.255,0-13.139,5.908-13.139,13.194c0,7.287,5.884,13.194,13.139,13.194h72.263 c7.257,0,13.139-5.907,13.139-13.194C451.551,125.891,445.67,119.984,438.412,119.984z"></path><path style="fill:#D69363;" d="M496.231,446.707c0,2.966-2.425,5.393-5.39,5.393H21.158c-2.964,0-5.39-2.426-5.39-5.393v-13.833 c0-2.965,2.425-5.392,5.39-5.392h469.684c2.964,0,5.39,2.426,5.39,5.392V446.707z"></path><path style="opacity:0.1;fill:#231F20;enable-background:new ;" d="M49.322,446.707v-13.833c0-2.965,2.424-5.392,5.389-5.392 H21.158c-2.964,0-5.39,2.426-5.39,5.392v13.833c0,2.966,2.425,5.393,5.39,5.393h33.553C51.746,452.1,49.322,449.674,49.322,446.707z "></path><path style="fill:#CF6728;" d="M512,467.313c0,2.966-2.425,5.393-5.39,5.393H5.39c-2.964,0-5.39-2.426-5.39-5.393v-11.942 c0-2.966,2.425-5.393,5.39-5.393H506.61c2.964,0,5.39,2.426,5.39,5.393L512,467.313L512,467.313z"></path><path style="opacity:0.1;fill:#231F20;enable-background:new ;" d="M32.876,467.313v-11.942c0-2.966,2.425-5.393,5.39-5.393H5.39 c-2.964,0-5.39,2.426-5.39,5.393v11.942c0,2.966,2.425,5.393,5.39,5.393h32.876C35.301,472.707,32.876,470.279,32.876,467.313z"></path><g><path style="fill:#FEBE2D;" d="M212.883,190.878h-16.169c-4.329,0-7.837-3.509-7.837-7.837c0-4.329,3.508-7.837,7.837-7.837h16.169 c4.329,0,7.837,3.508,7.837,7.837C220.72,187.368,217.212,190.878,212.883,190.878z"></path><path style="fill:#FEBE2D;" d="M303.428,190.878h-16.169c-4.329,0-7.837-3.509-7.837-7.837c0-4.329,3.508-7.837,7.837-7.837h16.169 c4.329,0,7.837,3.508,7.837,7.837C311.265,187.368,307.756,190.878,303.428,190.878z"></path></g><path style="fill:#FEE12D;" d="M236.598,232.939h-10.779c-4.329,0-7.837-3.508-7.837-7.837c0-4.328,3.508-7.837,7.837-7.837h10.779 c4.329,0,7.837,3.509,7.837,7.837S240.926,232.939,236.598,232.939z"></path><path style="fill:#FEBE2D;" d="M287.259,232.939H276.48c-4.329,0-7.837-3.508-7.837-7.837c0-4.328,3.508-7.837,7.837-7.837h10.779 c4.329,0,7.837,3.509,7.837,7.837C295.096,229.43,291.588,232.939,287.259,232.939z"></path><g><path style="fill:#FEE12D;" d="M258.156,267.451h-8.622c-4.329,0-7.837-3.508-7.837-7.837c0-4.328,3.508-7.837,7.837-7.837h8.622 c4.329,0,7.837,3.509,7.837,7.837C265.992,263.943,262.484,267.451,258.156,267.451z"></path><path style="fill:#FEE12D;" d="M290.493,303.042h-8.624c-4.329,0-7.837-3.508-7.837-7.837c0-4.328,3.508-7.837,7.837-7.837h8.624 c4.329,0,7.837,3.509,7.837,7.837S294.821,303.042,290.493,303.042z"></path><path style="fill:#FEE12D;" d="M251.688,331.082h-8.622c-4.329,0-7.837-3.509-7.837-7.837s3.508-7.837,7.837-7.837h8.622 c4.329,0,7.837,3.509,7.837,7.837C259.524,327.574,256.017,331.082,251.688,331.082z"></path></g></svg>