<svg xmlns="http://www.w3.org/2000/svg" width="108.3" height="122.9" viewBox="0 0 108.3 122.9" xml:space="preserve">
  <path d="M4.9 9h33.3V6c.1-1.6.8-3 1.9-4A6.2 6.2 0 0 1 44.3 0h20.2a6.2 6.2 0 0 1 5.9 6.1v3h33.3c1.2.1 2.3.6 3 1.4 1 .9 1.5 2 1.5 3.4v10.9c0 1.4-1.2 2.6-2.7 2.6H2.6A2.7 2.7 0 0 1 0 24.8V13.6A4.9 4.9 0 0 1 4.8 9zm72.9 40.1h-6v56h6v-56zm-19.3 0h-6v56h6v-56zm-19.4 0h-6v56h6v-56zM10.8 31.6H99c1.4.2 2.7.8 3.6 1.7a5.6 5.6 0 0 1 1.7 4.3v.2l-7.4 79.3v.5l-.3 1-.5 1.1a5.8 5.8 0 0 1-5.2 3.2H18a5.9 5.9 0 0 1-2.5-.7c-1.8-1-3-3-3.2-5L4.9 37.7v-.5c0-1.6.6-3 1.7-4 1-1 2.3-1.6 3.7-1.7h.5zm87.4 5.3H10.8l-.5.2-.1.2v.1l7.3 79.3c0 .4.2.7.4.8h72.9c.2 0 .4-.1.5-.3l.1-.2v-.2l.1-.2 7.4-79.2v-.1l-.1-.2a.8.8 0 0 0-.5-.2zm.1 0zm.6.5zm5.3.4zM40.9 14.4H5.3V22H103v-7.7H67.8a2.7 2.7 0 0 1-2.6-2.7V6.2a.9.9 0 0 0-.8-.9h-20l-.6.3a1 1 0 0 0-.3.5v5.6c0 1.5-1.1 2.7-2.6 2.7z"/>
</svg>
